# xmcd
#
# Track frame offsets:
#	150
#	5327
#	35158
#	52711
#	75744
#	90456
#	109551
#	125133
#	146649
#	161608
#
# Disc length: 2388 seconds
#
# Revision: 21
# Processed by: cddbd v1.5.2PL0 Copyright (c) Steve Scherf et al.
# Submitted via: Jack! The Knife 20 Magnifico
#
DISCID=7809520a
DTITLE=Saxon - Crusader
DYEAR=1984
DGENRE=Heavy Metal
TTITLE0=The Crusader Prelude
TTITLE1=Crusader
TTITLE2=A Little Bit Of What You Fancy
TTITLE3=Sailing To America
TTITLE4=Set Me Free
TTITLE5=Just Let Me Rock
TTITLE6=Bad Boys (Like To Rock 'N' Roll)
TTITLE7=Do It All For You
TTITLE8=Rock City
TTITLE9=Run For Your Lives
EXTD=Kevin Beamish
EXTT0=Byford, Quinn, Oliver, Dawson, Glocker
EXTT1=Byford, Quinn, Oliver, Dawson, Glocker
EXTT2=Byford, Quinn, Oliver, Dawson, Glocker
EXTT3=Byford, Quinn, Oliver, Dawson, Glocker
EXTT4=Andy Scott
EXTT5=Byford, Quinn, Oliver, Dawson, Glocker
EXTT6=Byford, Quinn, Oliver, Dawson, Glocker
EXTT7=Byford, Quinn, Oliver, Dawson, Beamish
EXTT8=Byford, Quinn, Oliver, Dawson, Glocker
EXTT9=Byford, Quinn, Oliver, Dawson
PLAYORDER=
